<svg width="161" height="72" viewBox="0 0 161 72" fill="none" xmlns="http://www.w3.org/2000/svg">
<path d="M12.175 21.0337C13.7836 22.0457 12.3873 23.8322 11.0201 23.1169C10.4136 22.7999 10.4457 21.9879 10.6641 21.4382C10.6763 21.4069 10.7084 21.37 10.7604 21.3273L11.124 21.0243C11.1401 21.0112 11.1533 20.9921 11.1626 20.9686C11.1719 20.945 11.1769 20.9176 11.1774 20.8885L11.2217 16.9547C11.2218 16.9311 11.2157 16.9079 11.2041 16.8876C11.1926 16.8673 11.176 16.8506 11.156 16.8392C10.494 16.4571 9.83767 16.0807 9.18689 15.7101C8.98371 15.5961 8.72248 15.5789 8.50098 15.4462C7.97445 15.1318 7.44537 14.8231 6.91375 14.5201C6.87607 14.4993 6.87708 14.4795 6.9168 14.4608C7.74377 14.0829 8.5575 13.6774 9.35799 13.2443C10.0577 12.8663 10.9926 12.5243 11.6861 12.0668C12.2957 11.6654 13.0198 11.4343 13.5132 11.1688C14.7277 10.5161 15.5847 10.1428 16.5349 9.63375C18.6354 8.50781 20.8872 7.58175 22.9189 6.33557C23.1435 6.19814 23.4826 6.17003 23.7484 6.01387C25.2669 5.12217 26.4875 4.63963 27.841 3.90097C28.5743 3.49963 29.5398 3.14358 30.3311 2.62199C30.3504 2.60925 30.3728 2.6021 30.3959 2.60128C30.419 2.60045 30.442 2.60599 30.4625 2.6173C30.7303 2.76826 30.9982 2.9213 31.266 3.07643C31.8007 3.38719 32.4301 3.61207 32.9999 3.93533C35.2303 5.20494 37.4637 6.09507 39.8331 7.49118C39.9201 7.54115 40.163 7.54896 40.2822 7.61611C40.8556 7.93052 41.4371 8.22931 42.0268 8.51249C42.2742 8.63118 42.5263 8.90759 42.9159 8.9029C42.9698 8.90188 43.019 8.91324 43.0579 8.9357C43.9852 9.46978 45.2318 10.2896 45.6656 10.274C45.7164 10.272 45.7654 10.285 45.8062 10.3115C46.3913 10.6832 47.01 10.9565 47.5782 11.3453C47.925 11.5827 48.3344 11.503 48.7118 11.7763C49.2327 12.1542 49.7582 12.3713 50.273 12.732C50.5006 12.8913 50.7313 12.8523 50.9467 12.9694C51.793 13.4363 52.6913 14.0969 53.6186 14.3468C53.8386 14.4051 53.8518 14.4951 53.6583 14.6169L52.1581 15.5539C52.1184 15.5789 52.0716 15.5919 52.0176 15.593C51.6403 15.6039 51.4371 15.8819 51.2049 16.0021C50.658 16.2879 50.1371 16.633 49.5993 16.8969C49.0993 17.1416 48.6074 17.4013 48.1236 17.6762C47.0054 18.3087 45.7527 18.9114 44.6207 19.6314C44.6009 19.6439 44.5844 19.6613 44.5727 19.682C44.561 19.7027 44.5544 19.726 44.5535 19.75C44.5117 20.9785 44.5326 22.1888 44.6161 23.3809C44.6314 23.6068 44.5642 23.6359 44.4145 23.4683C42.5976 21.433 40.4528 19.8745 37.98 18.7928C37.3155 18.5023 36.6876 18.3368 36.1392 18.1541C32.3048 16.885 28.4714 16.8834 24.6391 18.1494C24.1884 18.2993 23.5743 18.4523 22.98 18.7006C20.3942 19.7802 18.1644 21.3783 16.2905 23.4949C16.1998 23.5969 16.156 23.5781 16.1591 23.4386L16.2187 19.6845C16.2189 19.6646 16.211 19.6452 16.1966 19.6304C16.1821 19.6156 16.1621 19.6065 16.1407 19.6048C15.8261 19.5783 14.7139 18.76 14.4038 18.5382C14.1151 18.3336 13.7805 18.3414 13.4872 18.14C13.0228 17.8204 12.5961 17.5643 12.2071 17.3717C12.1994 17.3679 12.1909 17.3661 12.1824 17.3664C12.1739 17.3666 12.1657 17.369 12.1585 17.3732C12.1514 17.3774 12.1455 17.3834 12.1414 17.3905C12.1373 17.3976 12.1352 17.4056 12.1353 17.4138L12.1078 20.9166C12.1078 20.9394 12.1139 20.9622 12.1257 20.9827C12.1375 21.0032 12.1544 21.0208 12.175 21.0337ZM40.5022 13.9579C39.109 13.4488 37.8135 12.9835 36.321 12.8695C36.0572 12.8497 35.7329 12.8112 35.3479 12.7539C31.9504 12.2479 28.4424 12.2828 24.8239 12.8585C24.4466 12.9179 24.0738 12.8476 23.6996 12.9335C21.2034 13.4988 18.7836 14.2749 16.9 15.9256C16.5975 16.1895 16.4524 16.5128 16.5303 16.8969C16.5351 16.9211 16.5458 16.9436 16.5613 16.9625C16.5769 16.9814 16.5969 16.9959 16.6195 17.0049C16.6421 17.0139 16.6666 17.017 16.6907 17.014C16.7149 17.0109 16.738 17.0018 16.7579 16.9875C17.5233 16.4269 18.3085 15.8335 19.2205 15.5539C20.5159 15.1573 21.6831 14.6279 23.1328 14.3155C23.5162 14.2328 23.9318 14.2781 24.2724 14.2281C28.336 13.6243 32.4 13.6206 36.4646 14.2172C36.8389 14.2734 37.2024 14.225 37.5706 14.303C38.7561 14.556 40.0332 14.8933 41.1285 15.4321C41.5288 15.6289 41.8923 15.607 42.2605 15.8178C42.8064 16.1333 43.3278 16.4841 43.8248 16.8704C44.0886 17.0755 44.2352 16.9854 44.2648 16.6002C44.2811 16.3889 44.2108 16.2135 44.054 16.0739C43.4918 15.5789 42.0268 14.3577 41.2843 14.2687C40.9849 14.2343 40.687 14.0251 40.5022 13.9579Z" fill="#EDEDED"/>
<path d="M132.05 18.6772C132.124 18.5762 132.218 18.5007 132.331 18.4508C133.196 18.0635 133.914 17.7543 134.957 18.0447C138.024 18.8989 137.745 23.3871 134.644 23.7853C131.52 24.1867 130.316 21.0337 132.05 18.6772Z" fill="#FFC019"/>
<path d="M27.3826 31.5451L27.6118 30.7253L27.65 30.5691C27.7793 30.39 27.8175 30.1948 27.7645 29.9835V29.7102C27.9764 29.3198 28.0614 28.9034 28.0197 28.4609C28.6144 25.9769 28.427 23.5719 27.4575 21.2461C27.4537 21.2367 27.4518 21.2266 27.4518 21.2164C27.4518 21.2062 27.4538 21.1961 27.4577 21.1868C27.4615 21.1775 27.4671 21.1691 27.4742 21.1621C27.4812 21.1552 27.4896 21.1497 27.4987 21.1462C28.4398 20.7917 30.1446 20.9525 31.7517 20.9666C33.4963 20.9806 35.2103 21.5054 36.712 22.2752C36.9269 22.3846 36.9737 22.5454 36.8525 22.7578C36.052 24.1664 35.5968 25.575 34.9842 27.0242C34.3212 28.5968 33.7926 30.3192 33.0808 31.9277C32.9601 32.201 33.0349 32.4696 32.9494 32.6758C32.5084 33.7554 32.1046 34.8501 31.738 35.9599C31.6356 36.2722 31.6157 36.5799 31.4691 36.8672C30.9833 37.8156 30.5225 38.5918 30.0866 39.1956C29.4572 40.0654 27.9738 40.5667 27.2971 39.3518C25.9696 36.9703 26.6051 34.0032 27.3826 31.5451Z" fill="#FFC019"/>
<path d="M36.1285 37.9088L36.3576 37.3622C36.5328 37.1592 36.6306 36.925 36.6509 36.6595C36.8495 36.1847 36.8862 35.6928 37.0894 35.24C37.2248 34.9401 37.3424 34.6335 37.4423 34.3201C37.7264 33.4284 38.09 32.6226 38.3115 31.7138C38.4011 31.3494 38.7866 30.3978 39.4679 28.8591C39.5871 28.5905 39.558 28.2344 39.6803 28.0002C40.1569 27.083 40.5882 26.1444 40.9742 25.1846C40.9775 25.1766 40.9826 25.1696 40.989 25.164C40.9955 25.1585 41.0031 25.1546 41.0112 25.1528C41.0194 25.1509 41.0277 25.1512 41.0357 25.1534C41.0436 25.1557 41.0508 25.16 41.0567 25.1658C42.5736 26.6822 43.9959 28.5655 44.7398 30.6175C46.1682 34.5575 46.3729 37.9057 45.0362 41.9316C43.4551 46.693 39.7429 50.1817 35.1218 51.798C34.7572 51.925 34.3442 52.027 33.8828 52.1041C32.8272 52.279 31.7288 52.482 30.7343 52.521C29.4221 52.571 28.4184 52.3337 27.2574 52.1494C25.8764 51.9307 24.7643 51.4904 23.5804 50.8407C23.3069 50.6908 22.9632 50.6393 22.6561 50.4222C21.6479 49.7132 20.6809 49.0589 19.8621 48.2703C18.5289 46.9845 17.4453 45.4963 16.6112 43.8055C16.3072 43.1887 15.9177 42.575 15.8291 41.8785C15.7802 41.4928 15.5785 41.0227 15.5037 40.7494C14.7022 37.801 14.7658 34.8782 15.6946 31.9808C15.826 31.5685 15.8596 31.0142 16.0979 30.5582C16.6265 29.5447 17.1535 28.4421 17.7845 27.5629C18.6461 26.3594 19.638 25.2788 20.7603 24.321C21.3286 23.8369 22.0359 23.4386 22.6867 22.9717C22.7035 22.9595 22.7243 22.9543 22.7447 22.9572C22.7652 22.9601 22.7837 22.9709 22.7967 22.9873C24.5764 25.2767 23.1633 28.995 22.4514 31.4499C22.3949 31.6404 22.4407 31.8574 22.401 32.0027C21.7054 34.6085 21.681 37.2035 22.3277 39.7874C22.734 41.4037 24.0707 42.8326 25.354 43.804C25.5414 43.9466 25.9131 44.1376 26.4691 44.3771C28.0457 45.0549 29.5871 45.1298 31.2049 44.4755C31.6952 44.2772 32.4759 43.9398 32.9525 43.4495C34.1486 42.2205 34.6726 41.0789 35.4303 39.7016C35.6595 39.2846 35.6549 38.8864 35.8581 38.5022C35.9599 38.3096 36.0501 38.1118 36.1285 37.9088Z" fill="#FFC019"/>
<path d="M12.8198 29.6321C12.718 29.4291 12.5693 29.2729 12.3738 29.1636L11.7047 28.8075C11.6344 28.769 11.5901 28.7498 11.5717 28.7498L10.5666 28.7576C10.5568 28.7578 10.5471 28.7561 10.538 28.7527C10.5289 28.7492 10.5207 28.7441 10.5137 28.7376C10.5067 28.731 10.5012 28.7232 10.4974 28.7146C10.4936 28.7059 10.4917 28.6967 10.4917 28.6873L10.5299 23.7447C10.5299 23.7347 10.5318 23.7249 10.5356 23.7157C10.5394 23.7065 10.5449 23.6981 10.5519 23.6911C10.5589 23.6842 10.5671 23.6787 10.5762 23.675C10.5853 23.6713 10.595 23.6695 10.6047 23.6698L12.6167 23.7041C12.6382 23.7047 12.6587 23.7126 12.6742 23.7265C12.6897 23.7403 12.6991 23.759 12.7007 23.7791C12.9084 26.4037 13.0449 27.9991 13.1101 28.5655C13.1661 29.0538 13.1773 29.4973 13.1437 29.896C13.1376 29.9574 13.1157 29.9668 13.078 29.9241L12.8198 29.6321Z" fill="#EDEDED"/>
<path d="M122.049 46.2339C117.783 48.7075 112.436 48.1594 109.208 44.1632C108.957 43.8508 108.735 43.5161 108.544 43.159C106.64 39.6193 106.333 35.9854 107.621 32.2572C109.181 27.741 113.09 25.222 117.81 25.7405C121.655 26.1621 124.289 28.1897 125.711 31.8231C127.193 35.6007 126.883 39.6172 124.996 43.1637C124.393 44.2975 123.146 45.5967 122.049 46.2339ZM113.356 41.9691C113.455 42.4141 113.983 42.5875 114.317 42.803C115.67 43.6822 117.288 43.7524 118.734 43.0638C121.973 41.524 122.046 36.7126 121.356 33.7142C121.22 33.1239 120.927 32.2697 120.568 31.8934C120.01 31.3109 119.786 30.7893 118.973 30.4332C117.342 29.718 115.809 29.7477 114.372 30.5222C113.443 31.022 112.813 32.0042 112.366 32.9537C112.027 33.6736 112.004 34.4904 111.904 35.2946C111.759 36.4669 111.79 37.6303 111.999 38.7849C112.054 39.0878 112.04 39.472 112.143 39.8093C112.374 40.5787 112.756 41.2543 113.29 41.8363C113.321 41.8689 113.344 41.915 113.356 41.9691Z" fill="#EDEDED"/>
<path d="M152.908 34.5809C153.009 33.2145 152.69 31.0204 151.141 30.3192C148.603 29.1714 146.047 30.0506 143.49 30.477C143.48 30.4787 143.47 30.4784 143.461 30.476C143.451 30.4736 143.442 30.4693 143.434 30.4632C143.425 30.4571 143.419 30.4493 143.413 30.4404C143.408 30.4315 143.405 30.4217 143.403 30.4114L142.818 26.7446C142.81 26.6901 142.822 26.6344 142.853 26.589C142.884 26.5436 142.931 26.5121 142.985 26.501C146.029 25.8764 149.321 25.1471 152.491 26.1012C156.608 27.3396 157.418 30.4348 157.416 34.4732C157.415 38.4991 157.418 42.5255 157.425 46.5525C157.425 46.5743 157.418 46.5956 157.404 46.6129C157.39 46.6302 157.371 46.6425 157.349 46.6477C154.523 47.3161 151.655 47.6477 148.745 47.6425C146.089 47.6362 143.027 46.782 141.631 44.3568C140.815 42.9373 140.815 40.8665 141.034 39.2768C141.403 36.5876 144.472 34.645 146.901 34.4951C148.933 34.3686 150.802 34.3061 152.826 34.645C152.835 34.6468 152.845 34.6465 152.855 34.6442C152.865 34.6419 152.874 34.6375 152.881 34.6315C152.889 34.6254 152.896 34.6178 152.9 34.6091C152.905 34.6004 152.907 34.5908 152.908 34.5809ZM145.832 41.9581C146.654 44.3521 150.997 43.9102 152.849 43.5494C152.866 43.5458 152.881 43.5363 152.892 43.5223C152.904 43.5084 152.91 43.4909 152.91 43.4729L152.905 38.2711C152.905 38.2487 152.898 38.227 152.885 38.2092C152.872 38.1914 152.853 38.1786 152.832 38.1727C151.244 37.725 149.647 37.6688 148.04 38.0041C147.607 38.0931 146.593 38.4804 146.313 38.8255C145.584 39.726 145.424 40.7702 145.832 41.9581Z" fill="#EDEDED"/>
<path d="M78.8676 30.3833L78.8615 47.085C78.8615 47.1032 78.8546 47.1207 78.8422 47.1336C78.8299 47.1465 78.8132 47.1537 78.7958 47.1537L74.1288 47.1381C74.1188 47.1381 74.1089 47.136 74.0996 47.132C74.0903 47.128 74.0819 47.1222 74.0748 47.1148C74.0677 47.1074 74.0621 47.0986 74.0582 47.0889C74.0544 47.0793 74.0524 47.0689 74.0524 47.0585L74.0479 26.9602C74.0479 26.9361 74.0548 26.9126 74.0679 26.8926C74.0809 26.8726 74.0995 26.857 74.1212 26.8477C74.5958 26.6437 75.0775 26.513 75.5663 26.4558C78.9852 26.0544 82.5034 25.1721 86.0124 26.4011C86.7441 26.6556 87.2712 27.0867 87.8379 27.602C87.9683 27.7196 88.1104 27.7379 88.2642 27.6567C88.7153 27.4203 89.195 27.1403 89.7032 26.8165C90.2043 26.4979 90.8887 26.3995 91.2843 26.2746C93.5351 25.5687 95.7603 25.5932 97.9601 26.348C98.5875 26.5635 99.1217 26.8597 99.5627 27.2366C100.766 28.2673 101.423 29.4447 101.764 31.0844C102.07 32.5597 102.224 34.0568 102.228 35.5757C102.239 39.3341 102.238 43.157 102.227 47.0444C102.227 47.0589 102.224 47.0732 102.219 47.0866C102.213 47.1 102.205 47.1121 102.195 47.1223C102.186 47.1324 102.174 47.1404 102.161 47.1458C102.148 47.1512 102.134 47.1539 102.12 47.1537L97.6195 47.1412C97.5992 47.1412 97.5798 47.133 97.5655 47.1183C97.5511 47.1037 97.5431 47.0838 97.5431 47.0631C97.5319 43.3558 97.5288 39.6542 97.5339 35.9583C97.5355 34.1281 97.3353 32.1667 96.2033 30.7175C96.1575 30.6581 95.9798 30.5561 95.6702 30.4114C94.611 29.9137 93.5142 29.8154 92.3796 30.1162C91.5501 30.3364 90.7894 30.4457 90.0225 30.9923C90.0039 31.0055 89.9898 31.0244 89.9824 31.0463C89.975 31.0682 89.9746 31.092 89.9812 31.1141C90.3489 32.3811 90.5353 33.644 90.5403 34.9027C90.5505 37.4138 90.551 41.4714 90.5419 47.0756C90.5419 47.0968 90.5337 47.117 90.5191 47.132C90.5044 47.1469 90.4846 47.1553 90.464 47.1553L85.8184 47.1584C85.7965 47.1584 85.7755 47.1495 85.7601 47.1337C85.7446 47.1179 85.7359 47.0964 85.7359 47.0741C85.7145 42.968 85.6926 38.8703 85.6702 34.7808C85.661 32.985 85.4227 31.809 84.3366 30.5472C84.3046 30.5105 84.2619 30.4824 84.2128 30.466C83.6293 30.2771 83.0457 29.9991 82.4453 29.9741C81.267 29.9221 80.0994 30.0267 78.9424 30.288C78.9211 30.293 78.902 30.3051 78.8884 30.3225C78.8748 30.3398 78.8675 30.3612 78.8676 30.3833Z" fill="#EDEDED"/>
<path d="M54.7108 46.554C54.3289 46.4306 53.0045 45.3469 52.6699 44.7238C52.2498 43.9445 51.8037 43.2964 51.5242 42.4344C51.4845 42.3157 51.5257 42.083 51.486 41.9222C51.1499 40.5521 50.9808 39.1591 50.9788 37.7432C50.9717 33.9849 50.9727 30.2042 50.9819 26.401C50.9819 26.3779 50.9864 26.3551 50.9951 26.3338C51.0039 26.3124 51.0168 26.2931 51.0329 26.2768C51.0491 26.2606 51.0684 26.2477 51.0895 26.239C51.1106 26.2303 51.1332 26.2259 51.156 26.2261L55.5358 26.2324C55.573 26.2324 55.6088 26.2474 55.6352 26.274C55.6615 26.3007 55.6763 26.3368 55.6763 26.3745C55.6763 30.0329 55.6763 33.7215 55.6763 37.4403C55.6778 39.2034 55.9421 40.7603 56.8511 42.2892C57.013 42.5624 57.3521 42.6109 57.5645 42.7561C59.0494 43.7665 61.4936 43.4573 63.1954 43.1652C63.2162 43.1619 63.2352 43.1509 63.2489 43.1343C63.2626 43.1177 63.2702 43.0966 63.2703 43.0747L63.2748 26.2855C63.2748 26.2697 63.281 26.2547 63.2918 26.2435C63.3027 26.2324 63.3175 26.2261 63.3329 26.2261L67.9724 26.2433C67.9926 26.2433 68.0121 26.2515 68.0264 26.2662C68.0407 26.2808 68.0487 26.3007 68.0487 26.3214V46.4462C68.0487 46.4704 68.0417 46.4937 68.0288 46.5128C68.0159 46.5319 67.9977 46.5458 67.9769 46.5524C67.8721 46.5837 67.7677 46.591 67.6638 46.5743C67.6068 46.5649 67.5574 46.566 67.5156 46.5774C64.9033 47.2885 62.205 47.6503 59.4206 47.6628C57.9123 47.669 56.5012 47.3572 55.1875 46.7273C55.0978 46.6836 54.939 46.6258 54.7108 46.554Z" fill="#EDEDED"/>
<path d="M126.208 54.9947C126.184 54.9868 126.164 54.9698 126.151 54.9472C126.139 54.9247 126.135 54.8981 126.141 54.8729C126.42 53.6527 126.607 52.3941 126.703 51.0969C126.704 51.0875 126.706 51.0784 126.711 51.0702C126.715 51.062 126.721 51.055 126.729 51.0496C126.737 51.0442 126.745 51.0406 126.755 51.039C126.764 51.0375 126.773 51.038 126.783 51.0406C128.322 51.506 130.408 51.5669 131.324 50.0443C131.789 49.2744 131.863 48.1563 131.865 47.1006C131.869 40.4449 131.87 33.7897 131.867 27.1351C131.867 27.1249 131.869 27.1148 131.872 27.1054C131.876 27.096 131.882 27.0875 131.889 27.0804C131.896 27.0733 131.905 27.0677 131.914 27.0639C131.923 27.0602 131.933 27.0583 131.943 27.0585L136.488 27.0632C136.508 27.0632 136.527 27.0716 136.542 27.0866C136.556 27.1015 136.564 27.1218 136.564 27.1429C136.566 34.0641 136.567 40.9842 136.566 47.9033C136.566 49.5462 136.045 51.7168 135.101 53.0036C133.153 55.6568 129.068 55.9176 126.208 54.9947Z" fill="#FFC019"/>
<path d="M73.3497 55.1555L73.3558 52.1962C73.3563 52.1705 73.3642 52.146 73.3778 52.1277C73.3914 52.1095 73.4098 52.0988 73.4291 52.0978L73.9684 52.076C73.9782 52.0756 73.988 52.0775 73.9973 52.0818C74.0065 52.0861 74.0149 52.0926 74.022 52.1009C74.0292 52.1092 74.0349 52.1192 74.0388 52.1302C74.0427 52.1412 74.0447 52.153 74.0448 52.165V60.5932C74.0447 60.6522 74.0256 60.7094 73.9905 60.756C73.9554 60.8027 73.9063 60.836 73.8507 60.8508C71.9656 61.3428 69.9476 61.285 69.2449 59.0596C68.8003 57.6557 69.2464 55.6131 70.7221 55.0103C71.7243 54.6027 72.3002 54.8776 73.2779 55.2086C73.2861 55.2113 73.2948 55.212 73.3033 55.2106C73.3118 55.2092 73.3199 55.2058 73.3269 55.2007C73.3339 55.1955 73.3396 55.1887 73.3436 55.1809C73.3475 55.173 73.3496 55.1644 73.3497 55.1555ZM69.9614 56.8811C69.3549 59.3735 70.8291 61.0101 73.284 60.1809C73.3049 60.1742 73.3231 60.1604 73.336 60.1416C73.3489 60.1228 73.3558 60.0999 73.3558 60.0763L73.3573 56.1831C73.3573 56.1589 73.3516 56.1351 73.3407 56.1136C73.3298 56.0922 73.314 56.0737 73.2947 56.0597C72.2635 55.2961 70.3341 55.3476 69.9614 56.8811Z" fill="#EDEDED"/>
<path d="M55.6659 58.7661L51.9522 58.7676C51.9298 58.7676 51.908 58.7749 51.8901 58.7884C51.8722 58.8019 51.8591 58.8209 51.8529 58.8426L51.2632 60.8462C51.2563 60.8708 51.2432 60.8925 51.226 60.9077C51.2089 60.923 51.1886 60.931 51.1685 60.9305L50.4276 60.918C50.4186 60.9178 50.41 60.9151 50.4024 60.9101C50.3948 60.9051 50.3885 60.898 50.384 60.8894C50.3795 60.8808 50.3769 60.871 50.3765 60.8607C50.3761 60.8504 50.3779 60.8401 50.3817 60.8305C50.7127 59.9571 51.0565 59.093 51.4129 58.2382C51.5107 58.004 51.4603 57.7447 51.5565 57.5292C52.139 56.2133 52.6844 54.8807 53.1926 53.5314C53.3281 53.1743 53.4813 52.9786 53.6524 52.9443C53.8215 52.9109 53.9758 52.9255 54.1153 52.988C54.1569 53.0062 54.1939 53.0413 54.2207 53.0879C55.1312 54.6839 55.7102 56.5345 56.3503 58.0977C56.6802 58.9019 56.9048 59.9545 57.36 60.843C57.3646 60.8518 57.3671 60.8616 57.3674 60.8715C57.3678 60.8814 57.3659 60.8911 57.3619 60.8997C57.3579 60.9082 57.3521 60.9154 57.3448 60.9205C57.3375 60.9256 57.3291 60.9285 57.3203 60.9289L56.6573 60.968C56.6366 60.9695 56.6152 60.9622 56.5962 60.9473C56.5772 60.9324 56.5617 60.9106 56.5519 60.8852L55.7713 58.841C55.7628 58.8185 55.7481 58.7993 55.7293 58.7858C55.7104 58.7724 55.6883 58.7655 55.6659 58.7661ZM52.2699 58.0415C53.3041 58.0836 54.3277 58.0789 55.3634 58.068C55.3731 58.0677 55.3826 58.0653 55.3913 58.0609C55.4 58.0566 55.4077 58.0504 55.4138 58.0429C55.4199 58.0353 55.4242 58.0265 55.4266 58.0171C55.429 58.0077 55.4293 57.9979 55.4276 57.9884C55.1999 56.6703 54.3949 55.2164 53.9045 53.9468C53.8862 53.8979 53.8658 53.8963 53.8434 53.9422C53.5918 54.4585 53.3479 54.9796 53.1116 55.5053C52.7786 56.2409 52.5953 57.1544 52.2256 57.9696C52.2221 57.9771 52.2205 57.9854 52.221 57.9937C52.2215 58.002 52.224 58.01 52.2284 58.0172C52.2328 58.0243 52.2389 58.0302 52.2461 58.0345C52.2534 58.0387 52.2616 58.0411 52.2699 58.0415Z" fill="#EDEDED"/>
<path d="M60.1831 60.9836C57.8397 60.423 57.4959 57.2122 58.9442 55.649C59.8226 54.7011 61.0569 54.5293 62.2103 55.0634C62.2317 55.0735 62.2493 55.09 62.2599 55.1099C62.2705 55.1299 62.2735 55.1521 62.2683 55.1727L62.1293 55.6943C62.1269 55.7035 62.1223 55.7119 62.116 55.719C62.1096 55.7261 62.1016 55.7317 62.0924 55.7354C62.0833 55.7391 62.0732 55.7409 62.063 55.7405C62.0527 55.7401 62.0425 55.7377 62.0331 55.7334C61.3624 55.4226 60.4275 55.4226 59.7859 55.8396C58.605 56.6079 58.8296 58.7661 59.4376 59.8061C59.5028 59.9183 59.6037 60.0038 59.7233 60.0482C60.6134 60.3813 61.4128 60.4131 62.1217 60.1434C62.1394 60.1369 62.1582 60.1336 62.1767 60.1339C62.1952 60.1342 62.2131 60.138 62.229 60.1451C62.245 60.1523 62.2586 60.1625 62.2691 60.1751C62.2796 60.1878 62.2866 60.2025 62.2897 60.2184L62.3829 60.6572C62.3874 60.6776 62.3833 60.6998 62.3714 60.7202C62.3595 60.7406 62.3404 60.758 62.3172 60.7696C61.6817 61.1007 60.9703 61.172 60.1831 60.9836Z" fill="#EDEDED"/>
<path d="M66.8418 57.3512C67.0878 55.4148 65.3921 55.3148 64.0829 55.7286C64.0729 55.7319 64.0624 55.7332 64.052 55.7324C64.0417 55.7316 64.0317 55.7288 64.0229 55.724C64.0141 55.7193 64.0065 55.7128 64.0008 55.7049C63.9951 55.6971 63.9913 55.6882 63.9897 55.6787L63.8981 55.1305C63.8946 55.1097 63.8996 55.0879 63.9122 55.069C63.9248 55.0501 63.9442 55.0354 63.9668 55.0275C65.4838 54.4668 67.3979 54.6792 67.4987 56.7546C67.5293 57.4022 67.5328 58.7312 67.5094 60.7415C67.5094 60.7639 67.5021 60.7857 67.4885 60.8034C67.475 60.8212 67.456 60.834 67.4346 60.8399C65.9115 61.2365 64.2769 61.4036 63.3069 60.0029C63.2781 59.9613 63.2636 59.9108 63.2656 59.8592C63.2855 59.3657 63.1785 58.7395 63.4275 58.3257C64.118 57.1763 65.3539 57.3371 66.7532 57.423C66.7747 57.4241 66.7958 57.4174 66.8122 57.404C66.8286 57.3907 66.8392 57.3719 66.8418 57.3512ZM64.0218 59.0362C63.7285 60.6197 65.9375 60.4776 66.7899 60.2168C66.8115 60.2101 66.8305 60.1965 66.844 60.1779C66.8575 60.1593 66.8647 60.1368 66.8648 60.1137L66.8632 58.2601C66.8631 58.2387 66.856 58.218 66.8429 58.2013C66.8299 58.1846 66.8118 58.1728 66.7914 58.1679C65.9405 57.9602 64.2555 57.7697 64.0218 59.0362Z" fill="#EDEDED"/>
<path d="M80.076 60.7696C75.3341 62.7466 74.1899 55.8442 77.7234 54.8572C78.531 54.6324 79.2694 54.8624 79.9385 55.5475C80.574 56.1987 80.5297 57.1544 80.4991 57.9868C80.4979 58.0162 80.4855 58.044 80.4644 58.0644C80.4434 58.0848 80.4153 58.0961 80.3861 58.0961L76.6342 58.1039C76.6125 58.104 76.5916 58.1119 76.5754 58.1263C76.5591 58.1406 76.5485 58.1604 76.5456 58.182C76.2492 60.2995 78.1404 60.5478 79.6345 60.1746C80.0449 60.0726 80.2196 60.2355 80.1585 60.6634C80.1547 60.6868 80.1452 60.7089 80.1308 60.7275C80.1163 60.7461 80.0974 60.7606 80.076 60.7696ZM79.8025 57.309C79.8422 54.776 76.4341 55.129 76.5334 57.3074C76.5341 57.3288 76.543 57.3491 76.5581 57.364C76.5732 57.3788 76.5934 57.3871 76.6143 57.3871H79.7231C79.7439 57.3871 79.7639 57.3789 79.7787 57.3643C79.7936 57.3497 79.8021 57.3299 79.8025 57.309Z" fill="#EDEDED"/>
<path d="M83.0871 55.6787C83.0687 55.6823 83.0521 55.6922 83.0401 55.7067C83.0281 55.7213 83.0215 55.7395 83.0214 55.7583L83.0199 60.8555C83.0199 60.877 83.0117 60.8977 82.9971 60.9129C82.9825 60.9281 82.9627 60.9367 82.942 60.9367L82.2897 60.9476C82.28 60.9478 82.2703 60.946 82.2612 60.9421C82.2521 60.9383 82.2439 60.9326 82.2369 60.9253C82.2299 60.9181 82.2244 60.9094 82.2206 60.8998C82.2168 60.8902 82.2149 60.8799 82.2148 60.8696L82.2179 55.2445C82.2179 55.2217 82.2249 55.1994 82.2378 55.181C82.2506 55.1625 82.2688 55.1487 82.2897 55.1415C83.2155 54.8354 85.2717 54.4122 85.9102 55.4507C85.9241 55.473 85.946 55.4888 85.9712 55.4946C85.9963 55.5005 86.0228 55.4959 86.0447 55.4819C87.7342 54.3653 89.9631 54.4403 90.0624 57.106C90.099 58.0773 90.1046 59.3402 90.0792 60.8945C90.079 60.9055 90.0768 60.9164 90.0728 60.9264C90.0688 60.9365 90.0631 60.9456 90.056 60.9531C90.0489 60.9607 90.0405 60.9666 90.0314 60.9705C90.0223 60.9743 90.0125 60.9761 90.0028 60.9757L89.488 60.9476C89.4679 60.9465 89.4491 60.9365 89.4357 60.9199C89.4223 60.9032 89.4152 60.8812 89.4162 60.8586C89.4681 59.5916 89.4523 58.3293 89.3688 57.0716C89.2512 55.2773 87.5372 55.2117 86.4098 56.0613C86.3922 56.0747 86.379 56.0935 86.372 56.1152C86.3649 56.1369 86.3642 56.1605 86.3701 56.1831C86.4546 56.4996 86.5009 56.8275 86.5091 57.1669C86.5406 58.3964 86.563 59.6265 86.5763 60.8571C86.5765 60.8673 86.5747 60.8775 86.5709 60.8871C86.5672 60.8966 86.5616 60.9053 86.5545 60.9127C86.5475 60.9201 86.539 60.926 86.5296 60.9302C86.5202 60.9343 86.5101 60.9365 86.4999 60.9367L85.8232 60.9523C85.8129 60.9525 85.8027 60.9507 85.7932 60.947C85.7837 60.9433 85.775 60.9377 85.7676 60.9306C85.7602 60.9235 85.7543 60.915 85.7502 60.9056C85.7461 60.8962 85.7439 60.8861 85.7437 60.8758C85.7193 59.322 85.788 57.8119 85.6322 56.219C85.6273 56.1676 85.6057 56.1201 85.5711 56.0847C84.8638 55.3679 83.9426 55.5225 83.0871 55.6787Z" fill="#EDEDED"/>
<path d="M94.0007 60.0778C94.2533 59.4032 94.4779 58.7186 94.6744 58.0242C94.9082 57.1981 95.0166 56.0207 95.3604 55.029C95.3692 55.0037 95.3837 54.9818 95.4018 54.9664C95.4199 54.9509 95.4407 54.9428 95.4612 54.9431L96.0738 54.9572C96.0832 54.9574 96.0924 54.9602 96.1007 54.9652C96.109 54.9702 96.1161 54.9773 96.1217 54.9861C96.1272 54.9949 96.131 55.0051 96.1328 55.0161C96.1345 55.027 96.1342 55.0383 96.1318 55.0493C95.8232 56.3632 95.4485 57.6541 95.0075 58.9222C94.9678 59.0357 94.9321 59.2444 94.9005 59.5484C94.8501 60.0263 93.7044 62.5108 93.3041 62.7029C92.991 62.8544 90.6399 63.6009 91.1013 62.4312C91.1086 62.4116 91.1234 62.3959 91.1426 62.3875C91.1617 62.379 91.1837 62.3784 91.2036 62.3859C92.3998 62.8341 93.0551 62.172 93.6173 61.1631C93.6289 61.1427 93.6349 61.1193 93.6346 61.0954C93.6343 61.0715 93.6278 61.048 93.6158 61.0273C93.184 60.2746 92.7944 59.5042 92.4471 58.716C92.3555 58.5083 92.3814 58.2928 92.2989 58.0961C91.8844 57.1008 91.527 56.0847 91.2265 55.0478C91.2234 55.0375 91.2224 55.0266 91.2235 55.0159C91.2247 55.0053 91.228 54.9952 91.2331 54.9865C91.2383 54.9777 91.2452 54.9705 91.2533 54.9654C91.2615 54.9603 91.2706 54.9575 91.28 54.9572L92.0179 54.9494C92.0378 54.9492 92.0575 54.9582 92.0735 54.9748C92.0894 54.9914 92.1006 55.0145 92.1049 55.04C92.2893 56.1321 92.5973 57.1836 93.0292 58.1945C93.2705 58.7582 93.599 59.3188 93.7502 60.0028C93.7747 60.1174 93.8241 60.1731 93.8984 60.1699C93.9186 60.1696 93.9391 60.1606 93.9574 60.1441C93.9757 60.1277 93.9908 60.1045 94.0007 60.0778Z" fill="#EDEDED"/>
</svg>
